<?xml version='1.0'?>
<!--
Bitly Generated QR Code
v4
33x33
-->
<svg width='656' height='656'
xmlns='http://www.w3.org/2000/svg'
xmlns:xlink='http://www.w3.org/1999/xlink'>
	<g id='background' style='fill:#ffffff' >
<rect x="0" y="0" width="656" height="656" />
</g>
<g id='pips' style='fill:#000000' >
<path d="M64,208L80,208L80,224L64,224L64,208M64,272L80,272L80,288L80,304L64,304L64,288L64,272M64,320L80,320L80,304L96,304L96,320L96,336L112,336L112,352L96,352L96,368L96,384L96,400L80,400L80,416L80,432L80,448L96,448L112,448L112,432L112,416L96,416L96,400L112,400L128,400L128,416L128,432L144,432L144,416L144,400L160,400L160,416L176,416L192,416L192,432L208,432L208,416L208,400L208,384L192,384L176,384L176,368L160,368L160,352L176,352L176,336L192,336L192,352L192,368L208,368L224,368L224,352L208,352L208,336L192,336L192,320L208,320L208,304L208,288L192,288L176,288L176,272L160,272L160,256L176,256L176,240L160,240L144,240L128,240L128,224L112,224L112,208L112,192L128,192L144,192L144,208L160,208L160,224L176,224L192,224L192,208L208,208L208,224L224,224L224,240L224,256L240,256L240,272L224,272L224,288L224,304L224,320L224,336L240,336L240,352L256,352L256,368L272,368L272,352L288,352L304,352L304,368L288,368L288,384L288,400L272,400L272,384L256,384L256,400L240,400L224,400L224,416L224,432L224,448L208,448L208,464L208,480L224,480L240,480L240,496L256,496L256,512L272,512L272,496L256,496L256,480L272,480L272,464L288,464L288,448L304,448L304,464L320,464L320,480L304,480L288,480L288,496L288,512L304,512L304,496L320,496L320,480L336,480L352,480L352,496L336,496L336,512L352,512L352,496L368,496L384,496L384,512L368,512L368,528L352,528L352,544L352,560L336,560L336,576L336,592L320,592L320,576L320,560L304,560L288,560L272,560L256,560L240,560L240,544L240,528L224,528L224,512L208,512L208,496L192,496L192,480L192,464L176,464L160,464L144,464L128,464L112,464L96,464L80,464L64,464L64,448L64,432L64,416L64,400L64,384L64,368L80,368L80,352L64,352L64,336L64,320M80,240L96,240L96,256L112,256L112,272L96,272L80,272L80,256L80,240M96,224L112,224L112,240L96,240L96,224M96,288L112,288L112,304L96,304L96,288M112,240L128,240L128,256L112,256L112,240M112,320L128,320L128,336L112,336L112,320M112,352L128,352L128,368L112,368L112,352M128,256L144,256L144,272L128,272L128,256M128,288L144,288L144,272L160,272L160,288L176,288L176,304L160,304L160,320L144,320L128,320L128,304L128,288M128,336L144,336L144,352L128,352L128,336M160,432L160,448L176,448L176,432L160,432M160,192L176,192L192,192L192,208L176,208L160,208L160,192M160,320L176,320L176,336L160,336L160,320M160,384L176,384L176,400L160,400L160,384M192,240L192,256L208,256L208,240L192,240M192,96L208,96L208,112L208,128L192,128L192,112L192,96M192,160L208,160L208,176L192,176L192,160M192,512L208,512L208,528L208,544L192,544L192,528L192,512M208,64L224,64L224,80L240,80L240,64L256,64L272,64L288,64L304,64L304,80L288,80L272,80L272,96L256,96L256,112L240,112L240,96L224,96L208,96L208,80L208,64M208,144L224,144L240,144L240,128L256,128L272,128L272,144L272,160L272,176L256,176L256,160L240,160L240,176L224,176L224,160L208,160L208,144M208,176L224,176L224,192L240,192L240,208L224,208L208,208L208,192L208,176M208,544L224,544L224,560L240,560L240,576L224,576L224,592L208,592L208,576L208,560L208,544M224,112L240,112L240,128L224,128L224,112M240,176L256,176L256,192L240,192L240,176M240,208L256,208L256,224L256,240L272,240L272,224L288,224L288,240L288,256L272,256L256,256L240,256L240,240L240,224L240,208M240,272L256,272L272,272L272,288L288,288L288,304L272,304L256,304L256,288L240,288L240,272M240,304L256,304L256,320L256,336L240,336L240,320L240,304M240,416L256,416L256,432L240,432L240,416M240,448L256,448L256,464L256,480L240,480L240,464L240,448M256,528L256,544L272,544L272,528L256,528M240,576L256,576L272,576L272,592L256,592L240,592L240,576M256,192L272,192L272,208L256,208L256,192M256,336L272,336L272,352L256,352L256,336M256,400L272,400L272,416L256,416L256,400M256,432L272,432L272,448L256,448L256,432M272,112L288,112L288,128L272,128L272,112M272,176L288,176L288,160L288,144L304,144L304,160L304,176L320,176L320,192L336,192L336,208L320,208L320,224L304,224L288,224L288,208L288,192L272,192L272,176M272,416L288,416L288,400L304,400L304,416L304,432L288,432L272,432L272,416M288,304L304,304L304,288L320,288L320,304L320,320L304,320L288,320L288,304M288,576L304,576L304,592L288,592L288,576M304,96L320,96L336,96L336,112L352,112L352,128L352,144L368,144L384,144L384,160L368,160L368,176L352,176L352,160L336,160L336,144L336,128L320,128L320,144L304,144L304,128L304,112L304,96M304,240L320,240L320,256L336,256L352,256L352,272L336,272L336,288L320,288L320,272L304,272L304,256L304,240M304,336L320,336L336,336L336,352L352,352L352,368L368,368L384,368L400,368L400,384L400,400L400,416L400,432L384,432L384,416L368,416L368,400L384,400L384,384L368,384L352,384L352,400L352,416L368,416L368,432L384,432L384,448L368,448L352,448L352,432L336,432L336,416L320,416L320,400L320,384L336,384L336,368L320,368L320,352L304,352L304,336M304,368L320,368L320,384L304,384L304,368M320,64L336,64L336,80L320,80L320,64M320,160L336,160L336,176L320,176L320,160M320,224L336,224L336,240L320,240L320,224M320,448L336,448L336,464L320,464L320,448M336,176L352,176L352,192L336,192L336,176M352,64L368,64L384,64L400,64L416,64L432,64L432,80L416,80L416,96L416,112L432,112L432,96L448,96L448,80L448,64L464,64L464,80L464,96L464,112L448,112L448,128L464,128L464,144L448,144L448,160L432,160L432,144L432,128L416,128L400,128L400,144L384,144L384,128L368,128L368,112L368,96L384,96L384,80L368,80L352,80L352,64M352,192L368,192L368,208L384,208L384,224L400,224L400,240L416,240L416,224L432,224L432,208L448,208L464,208L480,208L480,224L480,240L464,240L464,224L448,224L448,240L448,256L432,256L416,256L416,272L416,288L400,288L400,272L400,256L384,256L384,272L384,288L384,304L368,304L368,288L352,288L352,272L368,272L368,256L352,256L352,240L368,240L368,224L352,224L352,208L352,192M352,464L368,464L384,464L384,480L368,480L352,480L352,464M352,560L368,560L368,576L368,592L352,592L352,576L352,560M368,176L384,176L384,192L368,192L368,176M368,336L384,336L384,320L400,320L400,336L416,336L432,336L432,352L416,352L400,352L384,352L368,352L368,336M368,528L384,528L400,528L400,512L416,512L416,528L416,544L400,544L400,560L384,560L368,560L368,544L368,528M384,160L400,160L400,176L384,176L384,160M384,192L400,192L400,208L384,208L384,192M384,448L400,448L400,464L384,464L384,448M384,480L400,480L416,480L416,464L416,448L416,432L432,432L432,448L432,464L432,480L448,480L448,464L448,448L464,448L480,448L496,448L512,448L528,448L544,448L544,464L528,464L528,480L528,496L544,496L560,496L576,496L576,512L576,528L576,544L592,544L592,560L592,576L576,576L560,576L560,592L544,592L544,576L544,560L560,560L560,544L544,544L544,560L528,560L512,560L512,544L528,544L528,528L544,528L544,512L528,512L528,528L512,528L512,544L496,544L496,528L480,528L480,544L464,544L464,560L448,560L448,544L432,544L432,528L432,512L432,496L416,496L400,496L384,496L384,480M400,144L416,144L416,160L400,160L400,144M400,208L416,208L416,224L400,224L400,208M416,160L432,160L432,176L432,192L416,192L416,176L416,160M416,368L432,368L432,352L448,352L448,368L464,368L464,384L480,384L480,400L496,400L496,384L480,384L480,368L464,368L464,352L448,352L448,336L464,336L480,336L480,320L496,320L496,304L496,288L496,272L480,272L480,288L480,304L464,304L464,288L464,272L448,272L448,256L464,256L480,256L480,240L496,240L496,224L496,208L512,208L528,208L528,224L512,224L512,240L528,240L528,256L528,272L528,288L512,288L512,304L512,320L512,336L528,336L544,336L544,352L560,352L560,368L560,384L544,384L544,400L560,400L576,400L576,416L592,416L592,432L576,432L560,432L560,448L544,448L544,432L528,432L528,416L512,416L496,416L496,432L480,432L480,416L464,416L464,400L448,400L448,384L432,384L432,400L416,400L416,384L416,368M416,544L432,544L432,560L432,576L416,576L416,560L416,544M432,272L448,272L448,288L432,288L432,272M432,320L448,320L448,336L432,336L432,320M432,576L448,576L464,576L480,576L496,576L496,592L480,592L464,592L448,592L432,592L432,576M448,160L464,160L464,176L464,192L448,192L448,176L448,160M448,304L464,304L464,320L448,320L448,304M448,416L464,416L464,432L448,432L448,416M464,464L464,480L464,496L464,512L480,512L496,512L512,512L512,496L512,480L512,464L496,464L480,464L464,464M480,480L496,480L496,496L480,496L480,480M512,368L512,384L512,400L528,400L528,384L528,368L512,368M512,576L528,576L528,592L512,592L512,576M528,192L544,192L560,192L560,208L544,208L528,208L528,192M528,224L544,224L560,224L576,224L592,224L592,240L576,240L576,256L560,256L544,256L544,240L528,240L528,224M528,288L544,288L544,272L560,272L576,272L576,288L560,288L560,304L560,320L544,320L528,320L528,304L528,288M544,464L560,464L576,464L576,480L560,480L544,480L544,464M560,320L576,320L576,336L592,336L592,352L592,368L592,384L592,400L576,400L576,384L576,368L576,352L560,352L560,336L560,320M576,256L592,256L592,272L576,272L576,256M576,304L592,304L592,320L576,320L576,304M576,448L592,448L592,464L576,464L576,448Z" />
</g>
<g id='corners-outer-1' style='fill:#000000' >
<path d="M64,64L80,64L96,64L112,64L128,64L144,64L160,64L176,64L176,80L176,96L176,112L176,128L176,144L176,160L176,176L160,176L144,176L128,176L112,176L96,176L80,176L64,176L64,160L64,144L64,128L64,112L64,96L64,80L64,64M80,80L80,96L80,112L80,128L80,144L80,160L96,160L112,160L128,160L144,160L160,160L160,144L160,128L160,112L160,96L160,80L144,80L128,80L112,80L96,80L80,80Z" />
</g>
<g id='corners-inner-1' style='fill:#000000' >
<path d="M96,96L112,96L128,96L144,96L144,112L144,128L144,144L128,144L112,144L96,144L96,128L96,112L96,96Z" />
</g>
<g id='corners-outer-2' style='fill:#000000' >
<path d="M480,64L496,64L512,64L528,64L544,64L560,64L576,64L592,64L592,80L592,96L592,112L592,128L592,144L592,160L592,176L576,176L560,176L544,176L528,176L512,176L496,176L480,176L480,160L480,144L480,128L480,112L480,96L480,80L480,64M496,80L496,96L496,112L496,128L496,144L496,160L512,160L528,160L544,160L560,160L576,160L576,144L576,128L576,112L576,96L576,80L560,80L544,80L528,80L512,80L496,80Z" />
</g>
<g id='corners-inner-2' style='fill:#000000' >
<path d="M512,96L528,96L544,96L560,96L560,112L560,128L560,144L544,144L528,144L512,144L512,128L512,112L512,96Z" />
</g>
<g id='corners-outer-3' style='fill:#000000' >
<path d="M64,480L80,480L96,480L112,480L128,480L144,480L160,480L176,480L176,496L176,512L176,528L176,544L176,560L176,576L176,592L160,592L144,592L128,592L112,592L96,592L80,592L64,592L64,576L64,560L64,544L64,528L64,512L64,496L64,480M80,496L80,512L80,528L80,544L80,560L80,576L96,576L112,576L128,576L144,576L160,576L160,560L160,544L160,528L160,512L160,496L144,496L128,496L112,496L96,496L80,496Z" />
</g>
<g id='corners-inner-3' style='fill:#000000' >
<path d="M96,512L112,512L128,512L144,512L144,528L144,544L144,560L128,560L112,560L96,560L96,544L96,528L96,512Z" />
</g>
</svg>
